<?xml version="1.0" encoding="UTF-8"?>
<svg width="32px" height="32px" viewBox="0 0 32 32" version="1.1" xmlns="http://www.w3.org/2000/svg">
    <title>Smart Calendar Favicon</title>
    <g stroke="none" stroke-width="1" fill="none" fill-rule="evenodd">
        <rect fill="#0EA5E9" x="0" y="0" width="32" height="32" rx="6"></rect>
        <g transform="translate(4.000000, 4.000000)" fill="#FFFFFF" fill-rule="nonzero">
            <path d="M22,3 L21,3 L21,1 C21,0.448 20.552,0 20,0 C19.448,0 19,0.448 19,1 L19,3 L5,3 L5,1 C5,0.448 4.552,0 4,0 C3.448,0 3,0.448 3,1 L3,3 L2,3 C0.895,3 0,3.895 0,5 L0,22 C0,23.105 0.895,24 2,24 L22,24 C23.105,24 24,23.105 24,22 L24,5 C24,3.895 23.105,3 22,3 Z M22,22 L2,22 L2,10 L22,10 L22,22 Z M22,8 L2,8 L2,5 L22,5 L22,8 Z"></path>
            <path d="M12,16 C12.552,16 13,15.552 13,15 C13,14.448 12.552,14 12,14 C11.448,14 11,14.448 11,15 C11,15.552 11.448,16 12,16 Z"></path>
            <path d="M8,16 C8.552,16 9,15.552 9,15 C9,14.448 8.552,14 8,14 C7.448,14 7,14.448 7,15 C7,15.552 7.448,16 8,16 Z"></path>
            <path d="M16,16 C16.552,16 17,15.552 17,15 C17,14.448 16.552,14 16,14 C15.448,14 15,14.448 15,15 C15,15.552 15.448,16 16,16 Z"></path>
            <path d="M12,20 C12.552,20 13,19.552 13,19 C13,18.448 12.552,18 12,18 C11.448,18 11,18.448 11,19 C11,19.552 11.448,20 12,20 Z"></path>
            <path d="M8,20 C8.552,20 9,19.552 9,19 C9,18.448 8.552,18 8,18 C7.448,18 7,18.448 7,19 C7,19.552 7.448,20 8,20 Z"></path>
            <path d="M16,20 C16.552,20 17,19.552 17,19 C17,18.448 16.552,18 16,18 C15.448,18 15,18.448 15,19 C15,19.552 15.448,20 16,20 Z"></path>
        </g>
    </g>
</svg>